<?xml version="1.0" encoding="UTF-8" standalone="no"?>
<!DOCTYPE svg PUBLIC "-//W3C//DTD SVG 1.1//EN"
 "http://www.w3.org/Graphics/SVG/1.1/DTD/svg11.dtd">
<!-- Generated by graphviz version 2.40.1 (20161225.0304)
 -->
<!-- Title: dependencies Pages: 1 -->
<svg width="6389pt" height="284pt"
 viewBox="0.00 0.00 6389.00 284.00" xmlns="http://www.w3.org/2000/svg" xmlns:xlink="http://www.w3.org/1999/xlink">
<g id="graph0" class="graph" transform="scale(1 1) rotate(0) translate(4 280)">
<title>dependencies</title>
<polygon fill="#ffffff" stroke="transparent" points="-4,4 -4,-280 6385,-280 6385,4 -4,4"/>
<text text-anchor="start" x="3169.5091" y="-42.4" font-family="sans-serif" font-weight="bold" font-size="14.00" fill="#000000">Legend</text>
<polygon fill="#ffffb3" stroke="transparent" points="2956.5,-10 2956.5,-30 2976.5,-30 2976.5,-10 2956.5,-10"/>
<text text-anchor="start" x="2980.129" y="-15.4" font-family="sans-serif" font-size="14.00" fill="#000000"> &#160;Declarations</text>
<polygon fill="#8dd3c7" stroke="transparent" points="3069.5,-10 3069.5,-30 3089.5,-30 3089.5,-10 3069.5,-10"/>
<text text-anchor="start" x="3093.2251" y="-15.4" font-family="sans-serif" font-size="14.00" fill="#000000"> &#160;Module</text>
<polygon fill="#80b1d3" stroke="transparent" points="3155.5,-10 3155.5,-30 3175.5,-30 3175.5,-10 3155.5,-10"/>
<text text-anchor="start" x="3179.2812" y="-15.4" font-family="sans-serif" font-size="14.00" fill="#000000"> &#160;Bootstrap</text>
<polygon fill="#fdb462" stroke="transparent" points="3252.5,-10 3252.5,-30 3272.5,-30 3272.5,-10 3252.5,-10"/>
<text text-anchor="start" x="3276.1732" y="-15.4" font-family="sans-serif" font-size="14.00" fill="#000000"> &#160;Providers</text>
<polygon fill="#fb8072" stroke="transparent" points="3348.5,-10 3348.5,-30 3368.5,-30 3368.5,-10 3348.5,-10"/>
<text text-anchor="start" x="3372.2258" y="-15.4" font-family="sans-serif" font-size="14.00" fill="#000000"> &#160;Exports</text>
<g id="clust1" class="cluster">
<title>cluster_AboutModalPageModule</title>
<polygon fill="none" stroke="#000000" stroke-dasharray="1,5" points="8,-70 8,-195 182,-195 182,-70 8,-70"/>
</g>
<g id="clust2" class="cluster">
<title>cluster_AboutModalPageModule_declarations</title>
<polygon fill="none" stroke="#000000" points="37,-78 37,-130 167,-130 167,-78 37,-78"/>
</g>
<g id="clust8" class="cluster">
<title>cluster_AboutPageModule</title>
<polygon fill="none" stroke="#000000" stroke-dasharray="1,5" points="4517,-70 4517,-195 4655,-195 4655,-70 4517,-70"/>
</g>
<g id="clust9" class="cluster">
<title>cluster_AboutPageModule_declarations</title>
<polygon fill="none" stroke="#000000" points="4532,-78 4532,-130 4626,-130 4626,-78 4532,-78"/>
</g>
<g id="clust15" class="cluster">
<title>cluster_AboutTextPageModule</title>
<polygon fill="none" stroke="#000000" stroke-dasharray="1,5" points="4663,-70 4663,-195 4827,-195 4827,-70 4663,-70"/>
</g>
<g id="clust16" class="cluster">
<title>cluster_AboutTextPageModule_declarations</title>
<polygon fill="none" stroke="#000000" points="4678,-78 4678,-130 4798,-130 4798,-78 4678,-78"/>
</g>
<g id="clust22" class="cluster">
<title>cluster_ActionsPageModule</title>
<polygon fill="none" stroke="#000000" stroke-dasharray="1,5" points="4835,-70 4835,-195 4981,-195 4981,-70 4835,-70"/>
</g>
<g id="clust23" class="cluster">
<title>cluster_ActionsPageModule_declarations</title>
<polygon fill="none" stroke="#000000" points="4857,-78 4857,-130 4959,-130 4959,-78 4857,-78"/>
</g>
<g id="clust29" class="cluster">
<title>cluster_AppModule</title>
<polygon fill="none" stroke="#000000" stroke-dasharray="1,5" points="1794,-70 1794,-268 4509,-268 4509,-70 1794,-70"/>
</g>
<g id="clust30" class="cluster">
<title>cluster_AppModule_declarations</title>
<polygon fill="none" stroke="#000000" points="1802,-78 1802,-130 3182,-130 3182,-78 1802,-78"/>
</g>
<g id="clust49" class="cluster">
<title>cluster_AppModule_bootstrap</title>
<polygon fill="none" stroke="#000000" points="2944,-208 2944,-260 3032,-260 3032,-208 2944,-208"/>
</g>
<g id="clust50" class="cluster">
<title>cluster_AppModule_providers</title>
<polygon fill="none" stroke="#000000" points="3190,-78 3190,-130 4501,-130 4501,-78 3190,-78"/>
</g>
<g id="clust51" class="cluster">
<title>cluster_HelpModalPageModule</title>
<polygon fill="none" stroke="#000000" stroke-dasharray="1,5" points="1482,-143 1482,-195 1648,-195 1648,-143 1482,-143"/>
</g>
<g id="clust58" class="cluster">
<title>cluster_HelpPageModule</title>
<polygon fill="none" stroke="#000000" stroke-dasharray="1,5" points="1656,-143 1656,-195 1786,-195 1786,-143 1656,-143"/>
</g>
<g id="clust65" class="cluster">
<title>cluster_HelpTextPageModule</title>
<polygon fill="none" stroke="#000000" stroke-dasharray="1,5" points="190,-143 190,-195 346,-195 346,-143 190,-143"/>
</g>
<g id="clust72" class="cluster">
<title>cluster_NewConsumptionPageModule</title>
<polygon fill="none" stroke="#000000" stroke-dasharray="1,5" points="4989,-70 4989,-195 5193,-195 5193,-70 4989,-70"/>
</g>
<g id="clust73" class="cluster">
<title>cluster_NewConsumptionPageModule_declarations</title>
<polygon fill="none" stroke="#000000" points="5010,-78 5010,-130 5172,-130 5172,-78 5010,-78"/>
</g>
<g id="clust79" class="cluster">
<title>cluster_NewOutgoPageModule</title>
<polygon fill="none" stroke="#000000" stroke-dasharray="1,5" points="5201,-70 5201,-195 5365,-195 5365,-70 5201,-70"/>
</g>
<g id="clust80" class="cluster">
<title>cluster_NewOutgoPageModule_declarations</title>
<polygon fill="none" stroke="#000000" points="5223,-78 5223,-130 5343,-130 5343,-78 5223,-78"/>
</g>
<g id="clust86" class="cluster">
<title>cluster_NewPaymentPageModule</title>
<polygon fill="none" stroke="#000000" stroke-dasharray="1,5" points="5373,-70 5373,-195 5551,-195 5551,-70 5373,-70"/>
</g>
<g id="clust87" class="cluster">
<title>cluster_NewPaymentPageModule_declarations</title>
<polygon fill="none" stroke="#000000" points="5395,-78 5395,-130 5529,-130 5529,-78 5395,-78"/>
</g>
<g id="clust93" class="cluster">
<title>cluster_NewVehiclePageModule</title>
<polygon fill="none" stroke="#000000" stroke-dasharray="1,5" points="5559,-70 5559,-195 5731,-195 5731,-70 5559,-70"/>
</g>
<g id="clust94" class="cluster">
<title>cluster_NewVehiclePageModule_declarations</title>
<polygon fill="none" stroke="#000000" points="5580,-78 5580,-130 5710,-130 5710,-78 5580,-78"/>
</g>
<g id="clust100" class="cluster">
<title>cluster_OutgoPageModule</title>
<polygon fill="none" stroke="#000000" stroke-dasharray="1,5" points="5739,-70 5739,-195 5877,-195 5877,-70 5739,-70"/>
</g>
<g id="clust101" class="cluster">
<title>cluster_OutgoPageModule_declarations</title>
<polygon fill="none" stroke="#000000" points="5761,-78 5761,-130 5855,-130 5855,-78 5761,-78"/>
</g>
<g id="clust107" class="cluster">
<title>cluster_PaymentPageModule</title>
<polygon fill="none" stroke="#000000" stroke-dasharray="1,5" points="5885,-70 5885,-195 6037,-195 6037,-70 5885,-70"/>
</g>
<g id="clust108" class="cluster">
<title>cluster_PaymentPageModule_declarations</title>
<polygon fill="none" stroke="#000000" points="5907,-78 5907,-130 6015,-130 6015,-78 5907,-78"/>
</g>
<g id="clust114" class="cluster">
<title>cluster_PointsPageModule</title>
<polygon fill="none" stroke="#000000" stroke-dasharray="1,5" points="354,-143 354,-195 492,-195 492,-143 354,-143"/>
</g>
<g id="clust121" class="cluster">
<title>cluster_PrivacyModalPageModule</title>
<polygon fill="none" stroke="#000000" stroke-dasharray="1,5" points="500,-143 500,-195 682,-195 682,-143 500,-143"/>
</g>
<g id="clust128" class="cluster">
<title>cluster_PrivacyPageModule</title>
<polygon fill="none" stroke="#000000" stroke-dasharray="1,5" points="690,-143 690,-195 836,-195 836,-143 690,-143"/>
</g>
<g id="clust135" class="cluster">
<title>cluster_PrivacyTextPageModule</title>
<polygon fill="none" stroke="#000000" stroke-dasharray="1,5" points="844,-143 844,-195 1016,-195 1016,-143 844,-143"/>
</g>
<g id="clust142" class="cluster">
<title>cluster_TosModalPageModule</title>
<polygon fill="none" stroke="#000000" stroke-dasharray="1,5" points="1024,-143 1024,-195 1184,-195 1184,-143 1024,-143"/>
</g>
<g id="clust149" class="cluster">
<title>cluster_TosPageModule</title>
<polygon fill="none" stroke="#000000" stroke-dasharray="1,5" points="1192,-143 1192,-195 1316,-195 1316,-143 1192,-143"/>
</g>
<g id="clust156" class="cluster">
<title>cluster_TosTextPageModule</title>
<polygon fill="none" stroke="#000000" stroke-dasharray="1,5" points="1324,-143 1324,-195 1474,-195 1474,-143 1324,-143"/>
</g>
<g id="clust163" class="cluster">
<title>cluster_VehiclePageModule</title>
<polygon fill="none" stroke="#000000" stroke-dasharray="1,5" points="6045,-70 6045,-195 6191,-195 6191,-70 6045,-70"/>
</g>
<g id="clust164" class="cluster">
<title>cluster_VehiclePageModule_declarations</title>
<polygon fill="none" stroke="#000000" points="6067,-78 6067,-130 6169,-130 6169,-78 6067,-78"/>
</g>
<g id="clust170" class="cluster">
<title>cluster_VehiclesListPageModule</title>
<polygon fill="none" stroke="#000000" stroke-dasharray="1,5" points="6199,-70 6199,-195 6373,-195 6373,-70 6199,-70"/>
</g>
<g id="clust171" class="cluster">
<title>cluster_VehiclesListPageModule_declarations</title>
<polygon fill="none" stroke="#000000" points="6221,-78 6221,-130 6351,-130 6351,-78 6221,-78"/>
</g>
<!-- AboutModalPage -->
<g id="node1" class="node">
<title>AboutModalPage</title>
<polygon fill="#ffffb3" stroke="#000000" points="159.2591,-122 44.7409,-122 44.7409,-86 159.2591,-86 159.2591,-122"/>
<text text-anchor="middle" x="102" y="-99.8" font-family="Times,serif" font-size="14.00" fill="#000000">AboutModalPage</text>
</g>
<!-- AboutModalPageModule -->
<g id="node2" class="node">
<title>AboutModalPageModule</title>
<polygon fill="#8dd3c7" stroke="#000000" points="174.3089,-187 171.3089,-191 150.3089,-191 147.3089,-187 15.6911,-187 15.6911,-151 174.3089,-151 174.3089,-187"/>
<text text-anchor="middle" x="95" y="-164.8" font-family="Times,serif" font-size="14.00" fill="#000000">AboutModalPageModule</text>
</g>
<!-- AboutModalPage&#45;&gt;AboutModalPageModule -->
<g id="edge1" class="edge">
<title>AboutModalPage&#45;&gt;AboutModalPageModule</title>
<path fill="none" stroke="#000000" d="M102,-122.1061C102,-122.1061 102,-140.991 102,-140.991"/>
<polygon fill="#000000" stroke="#000000" points="98.5001,-140.9909 102,-150.991 105.5001,-140.991 98.5001,-140.9909"/>
</g>
<!-- AppModule -->
<g id="node22" class="node">
<title>AppModule</title>
<polygon fill="#8dd3c7" stroke="#000000" points="3029.6571,-187 3026.6571,-191 3005.6571,-191 3002.6571,-187 2946.3429,-187 2946.3429,-151 3029.6571,-151 3029.6571,-187"/>
<text text-anchor="middle" x="2988" y="-164.8" font-family="Times,serif" font-size="14.00" fill="#000000">AppModule</text>
</g>
<!-- AboutModalPage&#45;&gt;AppModule -->
<g id="edge5" class="edge">
<title>AboutModalPage&#45;&gt;AppModule</title>
<path fill="none" stroke="#000000" d="M159.2645,-98C454.8198,-98 1793.973,-98 1793.973,-98 1793.973,-98 1793.973,-185 1793.973,-185 1793.973,-185 2936.2041,-185 2936.2041,-185"/>
<polygon fill="#000000" stroke="#000000" points="2936.2041,-188.5001 2946.2041,-185 2936.204,-181.5001 2936.2041,-188.5001"/>
</g>
<!-- AboutPage -->
<g id="node3" class="node">
<title>AboutPage</title>
<polygon fill="#ffffb3" stroke="#000000" points="4618.2093,-122 4539.7907,-122 4539.7907,-86 4618.2093,-86 4618.2093,-122"/>
<text text-anchor="middle" x="4579" y="-99.8" font-family="Times,serif" font-size="14.00" fill="#000000">AboutPage</text>
</g>
<!-- AboutPageModule -->
<g id="node4" class="node">
<title>AboutPageModule</title>
<polygon fill="#8dd3c7" stroke="#000000" points="4646.759,-187 4643.759,-191 4622.759,-191 4619.759,-187 4525.241,-187 4525.241,-151 4646.759,-151 4646.759,-187"/>
<text text-anchor="middle" x="4586" y="-164.8" font-family="Times,serif" font-size="14.00" fill="#000000">AboutPageModule</text>
</g>
<!-- AboutPage&#45;&gt;AboutPageModule -->
<g id="edge2" class="edge">
<title>AboutPage&#45;&gt;AboutPageModule</title>
<path fill="none" stroke="#000000" d="M4579,-122.1061C4579,-122.1061 4579,-140.991 4579,-140.991"/>
<polygon fill="#000000" stroke="#000000" points="4575.5001,-140.9909 4579,-150.991 4582.5001,-140.991 4575.5001,-140.9909"/>
</g>
<!-- AboutPage&#45;&gt;AppModule -->
<g id="edge6" class="edge">
<title>AboutPage&#45;&gt;AppModule</title>
<path fill="none" stroke="#000000" d="M4539.8126,-104C4523.7396,-104 4508.8313,-104 4508.8313,-104 4508.8313,-104 4508.8313,-184 4508.8313,-184 4508.8313,-184 3039.8643,-184 3039.8643,-184"/>
<polygon fill="#000000" stroke="#000000" points="3039.8643,-180.5001 3029.8643,-184 3039.8643,-187.5001 3039.8643,-180.5001"/>
</g>
<!-- AboutTextPage -->
<g id="node5" class="node">
<title>AboutTextPage</title>
<polygon fill="#ffffb3" stroke="#000000" points="4789.8669,-122 4686.1331,-122 4686.1331,-86 4789.8669,-86 4789.8669,-122"/>
<text text-anchor="middle" x="4738" y="-99.8" font-family="Times,serif" font-size="14.00" fill="#000000">AboutTextPage</text>
</g>
<!-- AboutTextPageModule -->
<g id="node6" class="node">
<title>AboutTextPageModule</title>
<polygon fill="#8dd3c7" stroke="#000000" points="4818.9172,-187 4815.9172,-191 4794.9172,-191 4791.9172,-187 4671.0828,-187 4671.0828,-151 4818.9172,-151 4818.9172,-187"/>
<text text-anchor="middle" x="4745" y="-164.8" font-family="Times,serif" font-size="14.00" fill="#000000">AboutTextPageModule</text>
</g>
<!-- AboutTextPage&#45;&gt;AboutTextPageModule -->
<g id="edge3" class="edge">
<title>AboutTextPage&#45;&gt;AboutTextPageModule</title>
<path fill="none" stroke="#000000" d="M4755.3111,-122.1061C4755.3111,-122.1061 4755.3111,-140.991 4755.3111,-140.991"/>
<polygon fill="#000000" stroke="#000000" points="4751.8112,-140.9909 4755.3111,-150.991 4758.8112,-140.991 4751.8112,-140.9909"/>
</g>
<!-- AboutTextPage&#45;&gt;AppModule -->
<g id="edge7" class="edge">
<title>AboutTextPage&#45;&gt;AppModule</title>
<path fill="none" stroke="#000000" d="M4720.6889,-122.08C4720.6889,-123.8464 4720.6889,-125 4720.6889,-125 4720.6889,-125 3017.3149,-125 3017.3149,-125 3017.3149,-125 3017.3149,-140.8495 3017.3149,-140.8495"/>
<polygon fill="#000000" stroke="#000000" points="3013.815,-140.8494 3017.3149,-150.8495 3020.815,-140.8495 3013.815,-140.8494"/>
</g>
<!-- ActionsPage -->
<g id="node7" class="node">
<title>ActionsPage</title>
<polygon fill="#ffffb3" stroke="#000000" points="4951.2591,-122 4864.7409,-122 4864.7409,-86 4951.2591,-86 4951.2591,-122"/>
<text text-anchor="middle" x="4908" y="-99.8" font-family="Times,serif" font-size="14.00" fill="#000000">ActionsPage</text>
</g>
<!-- ActionsPageModule -->
<g id="node8" class="node">
<title>ActionsPageModule</title>
<polygon fill="#8dd3c7" stroke="#000000" points="4973.309,-187 4970.309,-191 4949.309,-191 4946.309,-187 4842.691,-187 4842.691,-151 4973.309,-151 4973.309,-187"/>
<text text-anchor="middle" x="4908" y="-164.8" font-family="Times,serif" font-size="14.00" fill="#000000">ActionsPageModule</text>
</g>
<!-- ActionsPage&#45;&gt;ActionsPageModule -->
<g id="edge4" class="edge">
<title>ActionsPage&#45;&gt;ActionsPageModule</title>
<path fill="none" stroke="#000000" d="M4908,-122.1061C4908,-122.1061 4908,-140.991 4908,-140.991"/>
<polygon fill="#000000" stroke="#000000" points="4904.5001,-140.9909 4908,-150.991 4911.5001,-140.991 4904.5001,-140.9909"/>
</g>
<!-- ContactPage -->
<g id="node9" class="node">
<title>ContactPage</title>
<polygon fill="#ffffb3" stroke="#000000" points="3174.2591,-122 3087.7409,-122 3087.7409,-86 3174.2591,-86 3174.2591,-122"/>
<text text-anchor="middle" x="3131" y="-99.8" font-family="Times,serif" font-size="14.00" fill="#000000">ContactPage</text>
</g>
<!-- ContactPage&#45;&gt;AppModule -->
<g id="edge8" class="edge">
<title>ContactPage&#45;&gt;AppModule</title>
<path fill="none" stroke="#000000" d="M3131,-122.1243C3131,-136.7832 3131,-155 3131,-155 3131,-155 3039.7459,-155 3039.7459,-155"/>
<polygon fill="#000000" stroke="#000000" points="3039.746,-151.5001 3029.7459,-155 3039.7459,-158.5001 3039.746,-151.5001"/>
</g>
<!-- HelpModalPage -->
<g id="node10" class="node">
<title>HelpModalPage</title>
<polygon fill="#ffffb3" stroke="#000000" points="2808.4734,-122 2701.5266,-122 2701.5266,-86 2808.4734,-86 2808.4734,-122"/>
<text text-anchor="middle" x="2755" y="-99.8" font-family="Times,serif" font-size="14.00" fill="#000000">HelpModalPage</text>
</g>
<!-- HelpModalPage&#45;&gt;AppModule -->
<g id="edge9" class="edge">
<title>HelpModalPage&#45;&gt;AppModule</title>
<path fill="none" stroke="#000000" d="M2772.8289,-122.027C2772.8289,-138.3976 2772.8289,-160 2772.8289,-160 2772.8289,-160 2936.2577,-160 2936.2577,-160"/>
<polygon fill="#000000" stroke="#000000" points="2936.2578,-163.5001 2946.2577,-160 2936.2577,-156.5001 2936.2578,-163.5001"/>
</g>
<!-- HelpModalPageModule -->
<g id="node32" class="node">
<title>HelpModalPageModule</title>
<polygon fill="#8dd3c7" stroke="#000000" points="1640.024,-187 1637.024,-191 1616.024,-191 1613.024,-187 1489.976,-187 1489.976,-151 1640.024,-151 1640.024,-187"/>
<text text-anchor="middle" x="1565" y="-164.8" font-family="Times,serif" font-size="14.00" fill="#000000">HelpModalPageModule</text>
</g>
<!-- HelpModalPage&#45;&gt;HelpModalPageModule -->
<g id="edge30" class="edge">
<title>HelpModalPage&#45;&gt;HelpModalPageModule</title>
<path fill="none" stroke="#000000" d="M2737.1711,-122.0439C2737.1711,-134.5633 2737.1711,-149 2737.1711,-149 2737.1711,-149 1565,-149 1565,-149 1565,-149 1565,-149.1846 1565,-149.1846"/>
<polygon fill="#000000" stroke="#000000" points="1561.5006,-140.8455 1565,-150.8457 1568.5006,-140.8459 1561.5006,-140.8455"/>
</g>
<!-- HelpPage -->
<g id="node11" class="node">
<title>HelpPage</title>
<polygon fill="#ffffb3" stroke="#000000" points="2897.4249,-122 2826.5751,-122 2826.5751,-86 2897.4249,-86 2897.4249,-122"/>
<text text-anchor="middle" x="2862" y="-99.8" font-family="Times,serif" font-size="14.00" fill="#000000">HelpPage</text>
</g>
<!-- HelpPage&#45;&gt;AppModule -->
<g id="edge10" class="edge">
<title>HelpPage&#45;&gt;AppModule</title>
<path fill="none" stroke="#000000" d="M2873.7373,-122.2396C2873.7373,-137.5706 2873.7373,-157 2873.7373,-157 2873.7373,-157 2936.1016,-157 2936.1016,-157"/>
<polygon fill="#000000" stroke="#000000" points="2936.1016,-160.5001 2946.1016,-157 2936.1016,-153.5001 2936.1016,-160.5001"/>
</g>
<!-- HelpPageModule -->
<g id="node33" class="node">
<title>HelpPageModule</title>
<polygon fill="#8dd3c7" stroke="#000000" points="1777.9734,-187 1774.9734,-191 1753.9734,-191 1750.9734,-187 1664.0266,-187 1664.0266,-151 1777.9734,-151 1777.9734,-187"/>
<text text-anchor="middle" x="1721" y="-164.8" font-family="Times,serif" font-size="14.00" fill="#000000">HelpPageModule</text>
</g>
<!-- HelpPage&#45;&gt;HelpPageModule -->
<g id="edge31" class="edge">
<title>HelpPage&#45;&gt;HelpPageModule</title>
<path fill="none" stroke="#000000" d="M2850.2627,-122.0511C2850.2627,-136.373 2850.2627,-154 2850.2627,-154 2850.2627,-154 1788.1629,-154 1788.1629,-154"/>
<polygon fill="#000000" stroke="#000000" points="1788.163,-150.5001 1778.1629,-154 1788.1629,-157.5001 1788.163,-150.5001"/>
</g>
<!-- HelpTextPage -->
<g id="node12" class="node">
<title>HelpTextPage</title>
<polygon fill="#ffffb3" stroke="#000000" points="1906.0814,-122 1809.9186,-122 1809.9186,-86 1906.0814,-86 1906.0814,-122"/>
<text text-anchor="middle" x="1858" y="-99.8" font-family="Times,serif" font-size="14.00" fill="#000000">HelpTextPage</text>
</g>
<!-- HelpTextPage&#45;&gt;AppModule -->
<g id="edge11" class="edge">
<title>HelpTextPage&#45;&gt;AppModule</title>
<path fill="none" stroke="#000000" d="M1858,-122.0908C1858,-145.1328 1858,-182 1858,-182 1858,-182 2936.1044,-182 2936.1044,-182"/>
<polygon fill="#000000" stroke="#000000" points="2936.1044,-185.5001 2946.1044,-182 2936.1044,-178.5001 2936.1044,-185.5001"/>
</g>
<!-- HelpTextPageModule -->
<g id="node34" class="node">
<title>HelpTextPageModule</title>
<polygon fill="#8dd3c7" stroke="#000000" points="337.6317,-187 334.6317,-191 313.6317,-191 310.6317,-187 198.3683,-187 198.3683,-151 337.6317,-151 337.6317,-187"/>
<text text-anchor="middle" x="268" y="-164.8" font-family="Times,serif" font-size="14.00" fill="#000000">HelpTextPageModule</text>
</g>
<!-- HelpTextPage&#45;&gt;HelpTextPageModule -->
<g id="edge32" class="edge">
<title>HelpTextPage&#45;&gt;HelpTextPageModule</title>
<path fill="none" stroke="#000000" d="M1809.5463,-110C1543.0754,-110 268,-110 268,-110 268,-110 268,-140.9775 268,-140.9775"/>
<polygon fill="#000000" stroke="#000000" points="264.5001,-140.9774 268,-150.9775 271.5001,-140.9775 264.5001,-140.9774"/>
</g>
<!-- HomePage -->
<g id="node13" class="node">
<title>HomePage</title>
<polygon fill="#ffffb3" stroke="#000000" points="3069.9248,-122 2992.0752,-122 2992.0752,-86 3069.9248,-86 3069.9248,-122"/>
<text text-anchor="middle" x="3031" y="-99.8" font-family="Times,serif" font-size="14.00" fill="#000000">HomePage</text>
</g>
<!-- HomePage&#45;&gt;AppModule -->
<g id="edge12" class="edge">
<title>HomePage&#45;&gt;AppModule</title>
<path fill="none" stroke="#000000" d="M3004.8015,-122.1061C3004.8015,-122.1061 3004.8015,-140.991 3004.8015,-140.991"/>
<polygon fill="#000000" stroke="#000000" points="3001.3016,-140.9909 3004.8015,-150.991 3008.3016,-140.991 3001.3016,-140.9909"/>
</g>
<!-- MyApp -->
<g id="node14" class="node">
<title>MyApp</title>
<polygon fill="#ffffb3" stroke="#000000" points="2974.5529,-122 2915.4471,-122 2915.4471,-86 2974.5529,-86 2974.5529,-122"/>
<text text-anchor="middle" x="2945" y="-99.8" font-family="Times,serif" font-size="14.00" fill="#000000">MyApp</text>
</g>
<!-- MyApp&#45;&gt;AppModule -->
<g id="edge13" class="edge">
<title>MyApp&#45;&gt;AppModule</title>
<path fill="none" stroke="#000000" d="M2960.4737,-122.1061C2960.4737,-122.1061 2960.4737,-140.991 2960.4737,-140.991"/>
<polygon fill="#000000" stroke="#000000" points="2956.9738,-140.9909 2960.4737,-150.991 2963.9738,-140.991 2956.9738,-140.9909"/>
</g>
<!-- PointsPage -->
<g id="node15" class="node">
<title>PointsPage</title>
<polygon fill="#ffffb3" stroke="#000000" points="2002.2205,-122 1923.7795,-122 1923.7795,-86 2002.2205,-86 2002.2205,-122"/>
<text text-anchor="middle" x="1963" y="-99.8" font-family="Times,serif" font-size="14.00" fill="#000000">PointsPage</text>
</g>
<!-- PointsPage&#45;&gt;AppModule -->
<g id="edge14" class="edge">
<title>PointsPage&#45;&gt;AppModule</title>
<path fill="none" stroke="#000000" d="M1976.0367,-122.1554C1976.0367,-144.3519 1976.0367,-179 1976.0367,-179 1976.0367,-179 2936.1249,-179 2936.1249,-179"/>
<polygon fill="#000000" stroke="#000000" points="2936.125,-182.5001 2946.1249,-179 2936.1249,-175.5001 2936.125,-182.5001"/>
</g>
<!-- PointsPageModule -->
<g id="node47" class="node">
<title>PointsPageModule</title>
<polygon fill="#8dd3c7" stroke="#000000" points="483.7702,-187 480.7702,-191 459.7702,-191 456.7702,-187 362.2298,-187 362.2298,-151 483.7702,-151 483.7702,-187"/>
<text text-anchor="middle" x="423" y="-164.8" font-family="Times,serif" font-size="14.00" fill="#000000">PointsPageModule</text>
</g>
<!-- PointsPage&#45;&gt;PointsPageModule -->
<g id="edge39" class="edge">
<title>PointsPage&#45;&gt;PointsPageModule</title>
<path fill="none" stroke="#000000" d="M1949.9633,-122.1903C1949.9633,-125.5376 1949.9633,-128 1949.9633,-128 1949.9633,-128 423,-128 423,-128 423,-128 423,-140.8975 423,-140.8975"/>
<polygon fill="#000000" stroke="#000000" points="419.5001,-140.8974 423,-150.8975 426.5001,-140.8975 419.5001,-140.8974"/>
</g>
<!-- PrivacyModalPage -->
<g id="node16" class="node">
<title>PrivacyModalPage</title>
<polygon fill="#ffffb3" stroke="#000000" points="2142.0255,-122 2019.9745,-122 2019.9745,-86 2142.0255,-86 2142.0255,-122"/>
<text text-anchor="middle" x="2081" y="-99.8" font-family="Times,serif" font-size="14.00" fill="#000000">PrivacyModalPage</text>
</g>
<!-- PrivacyModalPage&#45;&gt;AppModule -->
<g id="edge15" class="edge">
<title>PrivacyModalPage&#45;&gt;AppModule</title>
<path fill="none" stroke="#000000" d="M2101.4208,-122.1686C2101.4208,-143.498 2101.4208,-176 2101.4208,-176 2101.4208,-176 2936.1317,-176 2936.1317,-176"/>
<polygon fill="#000000" stroke="#000000" points="2936.1317,-179.5001 2946.1317,-176 2936.1317,-172.5001 2936.1317,-179.5001"/>
</g>
<!-- PrivacyModalPageModule -->
<g id="node48" class="node">
<title>PrivacyModalPageModule</title>
<polygon fill="#8dd3c7" stroke="#000000" points="674.0744,-187 671.0744,-191 650.0744,-191 647.0744,-187 507.9256,-187 507.9256,-151 674.0744,-151 674.0744,-187"/>
<text text-anchor="middle" x="591" y="-164.8" font-family="Times,serif" font-size="14.00" fill="#000000">PrivacyModalPageModule</text>
</g>
<!-- PrivacyModalPage&#45;&gt;PrivacyModalPageModule -->
<g id="edge40" class="edge">
<title>PrivacyModalPage&#45;&gt;PrivacyModalPageModule</title>
<path fill="none" stroke="#000000" d="M2060.5792,-122.1592C2060.5792,-127.0433 2060.5792,-131 2060.5792,-131 2060.5792,-131 591,-131 591,-131 591,-131 591,-140.8903 591,-140.8903"/>
<polygon fill="#000000" stroke="#000000" points="587.5001,-140.8903 591,-150.8903 594.5001,-140.8904 587.5001,-140.8903"/>
</g>
<!-- PrivacyPage -->
<g id="node17" class="node">
<title>PrivacyPage</title>
<polygon fill="#ffffb3" stroke="#000000" points="2245.9748,-122 2160.0252,-122 2160.0252,-86 2245.9748,-86 2245.9748,-122"/>
<text text-anchor="middle" x="2203" y="-99.8" font-family="Times,serif" font-size="14.00" fill="#000000">PrivacyPage</text>
</g>
<!-- PrivacyPage&#45;&gt;AppModule -->
<g id="edge16" class="edge">
<title>PrivacyPage&#45;&gt;AppModule</title>
<path fill="none" stroke="#000000" d="M2217.3291,-122.0267C2217.3291,-142.7672 2217.3291,-174 2217.3291,-174 2217.3291,-174 2936.2921,-174 2936.2921,-174"/>
<polygon fill="#000000" stroke="#000000" points="2936.2922,-177.5001 2946.2921,-174 2936.2921,-170.5001 2936.2922,-177.5001"/>
</g>
<!-- PrivacyPageModule -->
<g id="node49" class="node">
<title>PrivacyPageModule</title>
<polygon fill="#8dd3c7" stroke="#000000" points="827.5255,-187 824.5255,-191 803.5255,-191 800.5255,-187 698.4745,-187 698.4745,-151 827.5255,-151 827.5255,-187"/>
<text text-anchor="middle" x="763" y="-164.8" font-family="Times,serif" font-size="14.00" fill="#000000">PrivacyPageModule</text>
</g>
<!-- PrivacyPage&#45;&gt;PrivacyPageModule -->
<g id="edge41" class="edge">
<title>PrivacyPage&#45;&gt;PrivacyPageModule</title>
<path fill="none" stroke="#000000" d="M2188.6709,-122.1432C2188.6709,-128.4611 2188.6709,-134 2188.6709,-134 2188.6709,-134 763,-134 763,-134 763,-134 763,-140.68 763,-140.68"/>
<polygon fill="#000000" stroke="#000000" points="759.5001,-140.6799 763,-150.68 766.5001,-140.68 759.5001,-140.6799"/>
</g>
<!-- PrivacyTextPage -->
<g id="node18" class="node">
<title>PrivacyTextPage</title>
<polygon fill="#ffffb3" stroke="#000000" points="2375.6332,-122 2264.3668,-122 2264.3668,-86 2375.6332,-86 2375.6332,-122"/>
<text text-anchor="middle" x="2320" y="-99.8" font-family="Times,serif" font-size="14.00" fill="#000000">PrivacyTextPage</text>
</g>
<!-- PrivacyTextPage&#45;&gt;AppModule -->
<g id="edge17" class="edge">
<title>PrivacyTextPage&#45;&gt;AppModule</title>
<path fill="none" stroke="#000000" d="M2338.6054,-122.308C2338.6054,-142.1455 2338.6054,-171 2338.6054,-171 2338.6054,-171 2935.8918,-171 2935.8918,-171"/>
<polygon fill="#000000" stroke="#000000" points="2935.8918,-174.5001 2945.8918,-171 2935.8917,-167.5001 2935.8918,-174.5001"/>
</g>
<!-- PrivacyTextPageModule -->
<g id="node50" class="node">
<title>PrivacyTextPageModule</title>
<polygon fill="#8dd3c7" stroke="#000000" points="1007.6825,-187 1004.6825,-191 983.6825,-191 980.6825,-187 852.3175,-187 852.3175,-151 1007.6825,-151 1007.6825,-187"/>
<text text-anchor="middle" x="930" y="-164.8" font-family="Times,serif" font-size="14.00" fill="#000000">PrivacyTextPageModule</text>
</g>
<!-- PrivacyTextPage&#45;&gt;PrivacyTextPageModule -->
<g id="edge42" class="edge">
<title>PrivacyTextPage&#45;&gt;PrivacyTextPageModule</title>
<path fill="none" stroke="#000000" d="M2301.3946,-122.0449C2301.3946,-129.749 2301.3946,-137 2301.3946,-137 2301.3946,-137 930,-137 930,-137 930,-137 930,-140.7566 930,-140.7566"/>
<polygon fill="#000000" stroke="#000000" points="926.5001,-140.7566 930,-150.7566 933.5001,-140.7566 926.5001,-140.7566"/>
</g>
<!-- TosModalPage -->
<g id="node19" class="node">
<title>TosModalPage</title>
<polygon fill="#ffffb3" stroke="#000000" points="2494.2591,-122 2393.7409,-122 2393.7409,-86 2494.2591,-86 2494.2591,-122"/>
<text text-anchor="middle" x="2444" y="-99.8" font-family="Times,serif" font-size="14.00" fill="#000000">TosModalPage</text>
</g>
<!-- TosModalPage&#45;&gt;AppModule -->
<g id="edge18" class="edge">
<title>TosModalPage&#45;&gt;AppModule</title>
<path fill="none" stroke="#000000" d="M2460.7931,-122.1686C2460.7931,-141.0898 2460.7931,-168 2460.7931,-168 2460.7931,-168 2936.1903,-168 2936.1903,-168"/>
<polygon fill="#000000" stroke="#000000" points="2936.1903,-171.5001 2946.1903,-168 2936.1903,-164.5001 2936.1903,-171.5001"/>
</g>
<!-- TosModalPageModule -->
<g id="node51" class="node">
<title>TosModalPageModule</title>
<polygon fill="#8dd3c7" stroke="#000000" points="1176.3089,-187 1173.3089,-191 1152.3089,-191 1149.3089,-187 1031.6911,-187 1031.6911,-151 1176.3089,-151 1176.3089,-187"/>
<text text-anchor="middle" x="1104" y="-164.8" font-family="Times,serif" font-size="14.00" fill="#000000">TosModalPageModule</text>
</g>
<!-- TosModalPage&#45;&gt;TosModalPageModule -->
<g id="edge43" class="edge">
<title>TosModalPage&#45;&gt;TosModalPageModule</title>
<path fill="none" stroke="#000000" d="M2427.2069,-122.4218C2427.2069,-131.2791 2427.2069,-140 2427.2069,-140 2427.2069,-140 1104,-140 1104,-140 1104,-140 1104,-141.0799 1104,-141.0799"/>
<polygon fill="#000000" stroke="#000000" points="1100.5001,-140.7985 1104,-150.7985 1107.5001,-140.7986 1100.5001,-140.7985"/>
</g>
<!-- TosPage -->
<g id="node20" class="node">
<title>TosPage</title>
<polygon fill="#ffffb3" stroke="#000000" points="2576.2093,-122 2511.7907,-122 2511.7907,-86 2576.2093,-86 2576.2093,-122"/>
<text text-anchor="middle" x="2544" y="-99.8" font-family="Times,serif" font-size="14.00" fill="#000000">TosPage</text>
</g>
<!-- TosPage&#45;&gt;AppModule -->
<g id="edge19" class="edge">
<title>TosPage&#45;&gt;AppModule</title>
<path fill="none" stroke="#000000" d="M2554.7015,-122.302C2554.7015,-140.2699 2554.7015,-165 2554.7015,-165 2554.7015,-165 2936.0598,-165 2936.0598,-165"/>
<polygon fill="#000000" stroke="#000000" points="2936.0599,-168.5001 2946.0598,-165 2936.0598,-161.5001 2936.0599,-168.5001"/>
</g>
<!-- TosPageModule -->
<g id="node52" class="node">
<title>TosPageModule</title>
<polygon fill="#8dd3c7" stroke="#000000" points="1307.7591,-187 1304.7591,-191 1283.7591,-191 1280.7591,-187 1200.2409,-187 1200.2409,-151 1307.7591,-151 1307.7591,-187"/>
<text text-anchor="middle" x="1254" y="-164.8" font-family="Times,serif" font-size="14.00" fill="#000000">TosPageModule</text>
</g>
<!-- TosPage&#45;&gt;TosPageModule -->
<g id="edge44" class="edge">
<title>TosPage&#45;&gt;TosPageModule</title>
<path fill="none" stroke="#000000" d="M2533.2985,-122.1299C2533.2985,-132.3145 2533.2985,-143 2533.2985,-143 2533.2985,-143 1254,-143 1254,-143 1254,-143 1254,-143.7942 1254,-143.7942"/>
<polygon fill="#000000" stroke="#000000" points="1250.5001,-140.9421 1254,-150.9421 1257.5001,-140.9422 1250.5001,-140.9421"/>
</g>
<!-- TosTextPage -->
<g id="node21" class="node">
<title>TosTextPage</title>
<polygon fill="#ffffb3" stroke="#000000" points="2683.8669,-122 2594.1331,-122 2594.1331,-86 2683.8669,-86 2683.8669,-122"/>
<text text-anchor="middle" x="2639" y="-99.8" font-family="Times,serif" font-size="14.00" fill="#000000">TosTextPage</text>
</g>
<!-- TosTextPage&#45;&gt;AppModule -->
<g id="edge20" class="edge">
<title>TosTextPage&#45;&gt;AppModule</title>
<path fill="none" stroke="#000000" d="M2653.9778,-122.0225C2653.9778,-139.3734 2653.9778,-163 2653.9778,-163 2653.9778,-163 2936.0341,-163 2936.0341,-163"/>
<polygon fill="#000000" stroke="#000000" points="2936.0341,-166.5001 2946.0341,-163 2936.034,-159.5001 2936.0341,-166.5001"/>
</g>
<!-- TosTextPageModule -->
<g id="node53" class="node">
<title>TosTextPageModule</title>
<polygon fill="#8dd3c7" stroke="#000000" points="1465.9173,-187 1462.9173,-191 1441.9173,-191 1438.9173,-187 1332.0827,-187 1332.0827,-151 1465.9173,-151 1465.9173,-187"/>
<text text-anchor="middle" x="1399" y="-164.8" font-family="Times,serif" font-size="14.00" fill="#000000">TosTextPageModule</text>
</g>
<!-- TosTextPage&#45;&gt;TosTextPageModule -->
<g id="edge45" class="edge">
<title>TosTextPage&#45;&gt;TosTextPageModule</title>
<path fill="none" stroke="#000000" d="M2624.0222,-122.0555C2624.0222,-133.439 2624.0222,-146 2624.0222,-146 2624.0222,-146 1399,-146 1399,-146 1399,-146 1399,-146.4878 1399,-146.4878"/>
<polygon fill="#000000" stroke="#000000" points="1395.5002,-140.8776 1399,-150.8777 1402.5002,-140.8778 1395.5002,-140.8776"/>
</g>
<!-- IonicApp  -->
<g id="node23" class="node">
<title>IonicApp </title>
<polygon fill="#80b1d3" stroke="#000000" points="3024.3734,-252 2951.6266,-252 2951.6266,-216 3024.3734,-216 3024.3734,-252"/>
<text text-anchor="middle" x="2988" y="-229.8" font-family="Times,serif" font-size="14.00" fill="#000000">IonicApp </text>
</g>
<!-- AppModule&#45;&gt;IonicApp  -->
<g id="edge21" class="edge">
<title>AppModule&#45;&gt;IonicApp </title>
<path fill="none" stroke="#000000" stroke-dasharray="1,5" d="M2988,-187.1061C2988,-187.1061 2988,-205.991 2988,-205.991"/>
<polygon fill="#000000" stroke="#000000" points="2984.5001,-205.9909 2988,-215.991 2991.5001,-205.991 2984.5001,-205.9909"/>
</g>
<!-- APIInterceptor -->
<g id="node24" class="node">
<title>APIInterceptor</title>
<ellipse fill="#fdb462" stroke="#000000" cx="4085" cy="-104" rx="68.8965" ry="18"/>
<text text-anchor="middle" x="4085" y="-99.8" font-family="Times,serif" font-size="14.00" fill="#000000">APIInterceptor</text>
</g>
<!-- APIInterceptor&#45;&gt;AppModule -->
<g id="edge22" class="edge">
<title>APIInterceptor&#45;&gt;AppModule</title>
<path fill="none" stroke="#000000" d="M4085,-122.0267C4085,-142.7672 4085,-174 4085,-174 4085,-174 3039.6641,-174 3039.6641,-174"/>
<polygon fill="#000000" stroke="#000000" points="3039.6642,-170.5001 3029.6641,-174 3039.6641,-177.5001 3039.6642,-170.5001"/>
</g>
<!-- ActionsService -->
<g id="node25" class="node">
<title>ActionsService</title>
<ellipse fill="#fdb462" stroke="#000000" cx="3928" cy="-104" rx="70.0596" ry="18"/>
<text text-anchor="middle" x="3928" y="-99.8" font-family="Times,serif" font-size="14.00" fill="#000000">ActionsService</text>
</g>
<!-- ActionsService&#45;&gt;AppModule -->
<g id="edge23" class="edge">
<title>ActionsService&#45;&gt;AppModule</title>
<path fill="none" stroke="#000000" d="M3928,-122.308C3928,-142.1455 3928,-171 3928,-171 3928,-171 3039.9092,-171 3039.9092,-171"/>
<polygon fill="#000000" stroke="#000000" points="3039.9093,-167.5001 3029.9092,-171 3039.9092,-174.5001 3039.9093,-167.5001"/>
</g>
<!-- AuthService -->
<g id="node26" class="node">
<title>AuthService</title>
<ellipse fill="#fdb462" stroke="#000000" cx="3781" cy="-104" rx="59.1083" ry="18"/>
<text text-anchor="middle" x="3781" y="-99.8" font-family="Times,serif" font-size="14.00" fill="#000000">AuthService</text>
</g>
<!-- AuthService&#45;&gt;AppModule -->
<g id="edge24" class="edge">
<title>AuthService&#45;&gt;AppModule</title>
<path fill="none" stroke="#000000" d="M3781,-122.1686C3781,-141.0898 3781,-168 3781,-168 3781,-168 3039.7965,-168 3039.7965,-168"/>
<polygon fill="#000000" stroke="#000000" points="3039.7965,-164.5001 3029.7965,-168 3039.7965,-171.5001 3039.7965,-164.5001"/>
</g>
<!-- ConsumptionsService -->
<g id="node27" class="node">
<title>ConsumptionsService</title>
<ellipse fill="#fdb462" stroke="#000000" cx="3608" cy="-104" rx="95.5876" ry="18"/>
<text text-anchor="middle" x="3608" y="-99.8" font-family="Times,serif" font-size="14.00" fill="#000000">ConsumptionsService</text>
</g>
<!-- ConsumptionsService&#45;&gt;AppModule -->
<g id="edge25" class="edge">
<title>ConsumptionsService&#45;&gt;AppModule</title>
<path fill="none" stroke="#000000" d="M3608,-122.302C3608,-140.2699 3608,-165 3608,-165 3608,-165 3040.1277,-165 3040.1277,-165"/>
<polygon fill="#000000" stroke="#000000" points="3040.1277,-161.5001 3030.1277,-165 3040.1276,-168.5001 3040.1277,-161.5001"/>
</g>
<!-- JwtInterceptor -->
<g id="node28" class="node">
<title>JwtInterceptor</title>
<ellipse fill="#fdb462" stroke="#000000" cx="3427" cy="-104" rx="66.6094" ry="18"/>
<text text-anchor="middle" x="3427" y="-99.8" font-family="Times,serif" font-size="14.00" fill="#000000">JwtInterceptor</text>
</g>
<!-- JwtInterceptor&#45;&gt;AppModule -->
<g id="edge26" class="edge">
<title>JwtInterceptor&#45;&gt;AppModule</title>
<path fill="none" stroke="#000000" d="M3427,-122.0352C3427,-138.7344 3427,-161 3427,-161 3427,-161 3039.6958,-161 3039.6958,-161"/>
<polygon fill="#000000" stroke="#000000" points="3039.6959,-157.5001 3029.6958,-161 3039.6958,-164.5001 3039.6959,-157.5001"/>
</g>
<!-- OutgoesService -->
<g id="node29" class="node">
<title>OutgoesService</title>
<ellipse fill="#fdb462" stroke="#000000" cx="3270" cy="-104" rx="72.3497" ry="18"/>
<text text-anchor="middle" x="3270" y="-99.8" font-family="Times,serif" font-size="14.00" fill="#000000">OutgoesService</text>
</g>
<!-- OutgoesService&#45;&gt;AppModule -->
<g id="edge27" class="edge">
<title>OutgoesService&#45;&gt;AppModule</title>
<path fill="none" stroke="#000000" d="M3270,-122.2819C3270,-137.9478 3270,-158 3270,-158 3270,-158 3039.9137,-158 3039.9137,-158"/>
<polygon fill="#000000" stroke="#000000" points="3039.9138,-154.5001 3029.9137,-158 3039.9137,-161.5001 3039.9138,-154.5001"/>
</g>
<!-- PaymentsService -->
<g id="node30" class="node">
<title>PaymentsService</title>
<ellipse fill="#fdb462" stroke="#000000" cx="4415" cy="-104" rx="77.5839" ry="18"/>
<text text-anchor="middle" x="4415" y="-99.8" font-family="Times,serif" font-size="14.00" fill="#000000">PaymentsService</text>
</g>
<!-- PaymentsService&#45;&gt;AppModule -->
<g id="edge28" class="edge">
<title>PaymentsService&#45;&gt;AppModule</title>
<path fill="none" stroke="#000000" d="M4415,-122.2479C4415,-145.0179 4415,-181 4415,-181 4415,-181 3039.9346,-181 3039.9346,-181"/>
<polygon fill="#000000" stroke="#000000" points="3039.9346,-177.5001 3029.9346,-181 3039.9345,-184.5001 3039.9346,-177.5001"/>
</g>
<!-- VehiclesService -->
<g id="node31" class="node">
<title>VehiclesService</title>
<ellipse fill="#fdb462" stroke="#000000" cx="4246" cy="-104" rx="73.5502" ry="18"/>
<text text-anchor="middle" x="4246" y="-99.8" font-family="Times,serif" font-size="14.00" fill="#000000">VehiclesService</text>
</g>
<!-- VehiclesService&#45;&gt;AppModule -->
<g id="edge29" class="edge">
<title>VehiclesService&#45;&gt;AppModule</title>
<path fill="none" stroke="#000000" d="M4246,-122.2921C4246,-144.2057 4246,-178 4246,-178 4246,-178 3039.8559,-178 3039.8559,-178"/>
<polygon fill="#000000" stroke="#000000" points="3039.8559,-174.5001 3029.8559,-178 3039.8559,-181.5001 3039.8559,-174.5001"/>
</g>
<!-- NewConsumptionPage -->
<g id="node35" class="node">
<title>NewConsumptionPage</title>
<polygon fill="#ffffb3" stroke="#000000" points="5163.5926,-122 5018.4074,-122 5018.4074,-86 5163.5926,-86 5163.5926,-122"/>
<text text-anchor="middle" x="5091" y="-99.8" font-family="Times,serif" font-size="14.00" fill="#000000">NewConsumptionPage</text>
</g>
<!-- NewConsumptionPageModule -->
<g id="node36" class="node">
<title>NewConsumptionPageModule</title>
<polygon fill="#8dd3c7" stroke="#000000" points="5185.1427,-187 5182.1427,-191 5161.1427,-191 5158.1427,-187 4996.8573,-187 4996.8573,-151 5185.1427,-151 5185.1427,-187"/>
<text text-anchor="middle" x="5091" y="-164.8" font-family="Times,serif" font-size="14.00" fill="#000000">NewConsumptionPageModule</text>
</g>
<!-- NewConsumptionPage&#45;&gt;NewConsumptionPageModule -->
<g id="edge33" class="edge">
<title>NewConsumptionPage&#45;&gt;NewConsumptionPageModule</title>
<path fill="none" stroke="#000000" d="M5091,-122.1061C5091,-122.1061 5091,-140.991 5091,-140.991"/>
<polygon fill="#000000" stroke="#000000" points="5087.5001,-140.9909 5091,-150.991 5094.5001,-140.991 5087.5001,-140.9909"/>
</g>
<!-- NewOutgoPage -->
<g id="node37" class="node">
<title>NewOutgoPage</title>
<polygon fill="#ffffb3" stroke="#000000" points="5335.1374,-122 5230.8626,-122 5230.8626,-86 5335.1374,-86 5335.1374,-122"/>
<text text-anchor="middle" x="5283" y="-99.8" font-family="Times,serif" font-size="14.00" fill="#000000">NewOutgoPage</text>
</g>
<!-- NewOutgoPageModule -->
<g id="node38" class="node">
<title>NewOutgoPageModule</title>
<polygon fill="#8dd3c7" stroke="#000000" points="5357.1867,-187 5354.1867,-191 5333.1867,-191 5330.1867,-187 5208.8133,-187 5208.8133,-151 5357.1867,-151 5357.1867,-187"/>
<text text-anchor="middle" x="5283" y="-164.8" font-family="Times,serif" font-size="14.00" fill="#000000">NewOutgoPageModule</text>
</g>
<!-- NewOutgoPage&#45;&gt;NewOutgoPageModule -->
<g id="edge34" class="edge">
<title>NewOutgoPage&#45;&gt;NewOutgoPageModule</title>
<path fill="none" stroke="#000000" d="M5283,-122.1061C5283,-122.1061 5283,-140.991 5283,-140.991"/>
<polygon fill="#000000" stroke="#000000" points="5279.5001,-140.9909 5283,-150.991 5286.5001,-140.991 5279.5001,-140.9909"/>
</g>
<!-- NewPaymentPage -->
<g id="node39" class="node">
<title>NewPaymentPage</title>
<polygon fill="#ffffb3" stroke="#000000" points="5521.1332,-122 5402.8668,-122 5402.8668,-86 5521.1332,-86 5521.1332,-122"/>
<text text-anchor="middle" x="5462" y="-99.8" font-family="Times,serif" font-size="14.00" fill="#000000">NewPaymentPage</text>
</g>
<!-- NewPaymentPageModule -->
<g id="node40" class="node">
<title>NewPaymentPageModule</title>
<polygon fill="#8dd3c7" stroke="#000000" points="5543.1825,-187 5540.1825,-191 5519.1825,-191 5516.1825,-187 5380.8175,-187 5380.8175,-151 5543.1825,-151 5543.1825,-187"/>
<text text-anchor="middle" x="5462" y="-164.8" font-family="Times,serif" font-size="14.00" fill="#000000">NewPaymentPageModule</text>
</g>
<!-- NewPaymentPage&#45;&gt;NewPaymentPageModule -->
<g id="edge35" class="edge">
<title>NewPaymentPage&#45;&gt;NewPaymentPageModule</title>
<path fill="none" stroke="#000000" d="M5462,-122.1061C5462,-122.1061 5462,-140.991 5462,-140.991"/>
<polygon fill="#000000" stroke="#000000" points="5458.5001,-140.9909 5462,-150.991 5465.5001,-140.991 5458.5001,-140.9909"/>
</g>
<!-- NewVehiclePage -->
<g id="node41" class="node">
<title>NewVehiclePage</title>
<polygon fill="#ffffb3" stroke="#000000" points="5701.6713,-122 5588.3287,-122 5588.3287,-86 5701.6713,-86 5701.6713,-122"/>
<text text-anchor="middle" x="5645" y="-99.8" font-family="Times,serif" font-size="14.00" fill="#000000">NewVehiclePage</text>
</g>
<!-- NewVehiclePageModule -->
<g id="node42" class="node">
<title>NewVehiclePageModule</title>
<polygon fill="#8dd3c7" stroke="#000000" points="5723.2212,-187 5720.2212,-191 5699.2212,-191 5696.2212,-187 5566.7788,-187 5566.7788,-151 5723.2212,-151 5723.2212,-187"/>
<text text-anchor="middle" x="5645" y="-164.8" font-family="Times,serif" font-size="14.00" fill="#000000">NewVehiclePageModule</text>
</g>
<!-- NewVehiclePage&#45;&gt;NewVehiclePageModule -->
<g id="edge36" class="edge">
<title>NewVehiclePage&#45;&gt;NewVehiclePageModule</title>
<path fill="none" stroke="#000000" d="M5645,-122.1061C5645,-122.1061 5645,-140.991 5645,-140.991"/>
<polygon fill="#000000" stroke="#000000" points="5641.5001,-140.9909 5645,-150.991 5648.5001,-140.991 5641.5001,-140.9909"/>
</g>
<!-- OutgoPage -->
<g id="node43" class="node">
<title>OutgoPage</title>
<polygon fill="#ffffb3" stroke="#000000" points="5847.2093,-122 5768.7907,-122 5768.7907,-86 5847.2093,-86 5847.2093,-122"/>
<text text-anchor="middle" x="5808" y="-99.8" font-family="Times,serif" font-size="14.00" fill="#000000">OutgoPage</text>
</g>
<!-- OutgoPageModule -->
<g id="node44" class="node">
<title>OutgoPageModule</title>
<polygon fill="#8dd3c7" stroke="#000000" points="5868.759,-187 5865.759,-191 5844.759,-191 5841.759,-187 5747.241,-187 5747.241,-151 5868.759,-151 5868.759,-187"/>
<text text-anchor="middle" x="5808" y="-164.8" font-family="Times,serif" font-size="14.00" fill="#000000">OutgoPageModule</text>
</g>
<!-- OutgoPage&#45;&gt;OutgoPageModule -->
<g id="edge37" class="edge">
<title>OutgoPage&#45;&gt;OutgoPageModule</title>
<path fill="none" stroke="#000000" d="M5808,-122.1061C5808,-122.1061 5808,-140.991 5808,-140.991"/>
<polygon fill="#000000" stroke="#000000" points="5804.5001,-140.9909 5808,-150.991 5811.5001,-140.991 5804.5001,-140.9909"/>
</g>
<!-- PaymentPage -->
<g id="node45" class="node">
<title>PaymentPage</title>
<polygon fill="#ffffb3" stroke="#000000" points="6007.205,-122 5914.795,-122 5914.795,-86 6007.205,-86 6007.205,-122"/>
<text text-anchor="middle" x="5961" y="-99.8" font-family="Times,serif" font-size="14.00" fill="#000000">PaymentPage</text>
</g>
<!-- PaymentPageModule -->
<g id="node46" class="node">
<title>PaymentPageModule</title>
<polygon fill="#8dd3c7" stroke="#000000" points="6028.7548,-187 6025.7548,-191 6004.7548,-191 6001.7548,-187 5893.2452,-187 5893.2452,-151 6028.7548,-151 6028.7548,-187"/>
<text text-anchor="middle" x="5961" y="-164.8" font-family="Times,serif" font-size="14.00" fill="#000000">PaymentPageModule</text>
</g>
<!-- PaymentPage&#45;&gt;PaymentPageModule -->
<g id="edge38" class="edge">
<title>PaymentPage&#45;&gt;PaymentPageModule</title>
<path fill="none" stroke="#000000" d="M5961,-122.1061C5961,-122.1061 5961,-140.991 5961,-140.991"/>
<polygon fill="#000000" stroke="#000000" points="5957.5001,-140.9909 5961,-150.991 5964.5001,-140.991 5957.5001,-140.9909"/>
</g>
<!-- VehiclePage -->
<g id="node54" class="node">
<title>VehiclePage</title>
<polygon fill="#ffffb3" stroke="#000000" points="6161.2438,-122 6074.7562,-122 6074.7562,-86 6161.2438,-86 6161.2438,-122"/>
<text text-anchor="middle" x="6118" y="-99.8" font-family="Times,serif" font-size="14.00" fill="#000000">VehiclePage</text>
</g>
<!-- VehiclePageModule -->
<g id="node55" class="node">
<title>VehiclePageModule</title>
<polygon fill="#8dd3c7" stroke="#000000" points="6183.2935,-187 6180.2935,-191 6159.2935,-191 6156.2935,-187 6052.7065,-187 6052.7065,-151 6183.2935,-151 6183.2935,-187"/>
<text text-anchor="middle" x="6118" y="-164.8" font-family="Times,serif" font-size="14.00" fill="#000000">VehiclePageModule</text>
</g>
<!-- VehiclePage&#45;&gt;VehiclePageModule -->
<g id="edge46" class="edge">
<title>VehiclePage&#45;&gt;VehiclePageModule</title>
<path fill="none" stroke="#000000" d="M6118,-122.1061C6118,-122.1061 6118,-140.991 6118,-140.991"/>
<polygon fill="#000000" stroke="#000000" points="6114.5001,-140.9909 6118,-150.991 6121.5001,-140.991 6114.5001,-140.9909"/>
</g>
<!-- VehiclesListPage -->
<g id="node56" class="node">
<title>VehiclesListPage</title>
<polygon fill="#ffffb3" stroke="#000000" points="6342.9664,-122 6229.0336,-122 6229.0336,-86 6342.9664,-86 6342.9664,-122"/>
<text text-anchor="middle" x="6286" y="-99.8" font-family="Times,serif" font-size="14.00" fill="#000000">VehiclesListPage</text>
</g>
<!-- VehiclesListPageModule -->
<g id="node57" class="node">
<title>VehiclesListPageModule</title>
<polygon fill="#8dd3c7" stroke="#000000" points="6364.5169,-187 6361.5169,-191 6340.5169,-191 6337.5169,-187 6207.4831,-187 6207.4831,-151 6364.5169,-151 6364.5169,-187"/>
<text text-anchor="middle" x="6286" y="-164.8" font-family="Times,serif" font-size="14.00" fill="#000000">VehiclesListPageModule</text>
</g>
<!-- VehiclesListPage&#45;&gt;VehiclesListPageModule -->
<g id="edge47" class="edge">
<title>VehiclesListPage&#45;&gt;VehiclesListPageModule</title>
<path fill="none" stroke="#000000" d="M6286,-122.1061C6286,-122.1061 6286,-140.991 6286,-140.991"/>
<polygon fill="#000000" stroke="#000000" points="6282.5001,-140.9909 6286,-150.991 6289.5001,-140.991 6282.5001,-140.9909"/>
</g>
</g>
</svg>
