<?xml version="1.0" encoding="UTF-8" standalone="no"?>
<!DOCTYPE svg PUBLIC "-//W3C//DTD SVG 1.1//EN"
 "http://www.w3.org/Graphics/SVG/1.1/DTD/svg11.dtd">
<!-- Generated by graphviz version 2.40.1 (20161225.0304)
 -->
<!-- Title: dependencies Pages: 1 -->
<svg width="3090pt" height="284pt"
 viewBox="0.00 0.00 3090.00 284.00" xmlns="http://www.w3.org/2000/svg" xmlns:xlink="http://www.w3.org/1999/xlink">
<g id="graph0" class="graph" transform="scale(1 1) rotate(0) translate(4 280)">
<title>dependencies</title>
<polygon fill="#ffffff" stroke="transparent" points="-4,4 -4,-280 3086,-280 3086,4 -4,4"/>
<text text-anchor="start" x="1520.0091" y="-42.4" font-family="sans-serif" font-weight="bold" font-size="14.00" fill="#000000">Legend</text>
<polygon fill="#ffffb3" stroke="transparent" points="1307,-10 1307,-30 1327,-30 1327,-10 1307,-10"/>
<text text-anchor="start" x="1330.629" y="-15.4" font-family="sans-serif" font-size="14.00" fill="#000000"> &#160;Declarations</text>
<polygon fill="#8dd3c7" stroke="transparent" points="1420,-10 1420,-30 1440,-30 1440,-10 1420,-10"/>
<text text-anchor="start" x="1443.7251" y="-15.4" font-family="sans-serif" font-size="14.00" fill="#000000"> &#160;Module</text>
<polygon fill="#80b1d3" stroke="transparent" points="1506,-10 1506,-30 1526,-30 1526,-10 1506,-10"/>
<text text-anchor="start" x="1529.7812" y="-15.4" font-family="sans-serif" font-size="14.00" fill="#000000"> &#160;Bootstrap</text>
<polygon fill="#fdb462" stroke="transparent" points="1603,-10 1603,-30 1623,-30 1623,-10 1603,-10"/>
<text text-anchor="start" x="1626.6732" y="-15.4" font-family="sans-serif" font-size="14.00" fill="#000000"> &#160;Providers</text>
<polygon fill="#fb8072" stroke="transparent" points="1699,-10 1699,-30 1719,-30 1719,-10 1699,-10"/>
<text text-anchor="start" x="1722.7258" y="-15.4" font-family="sans-serif" font-size="14.00" fill="#000000"> &#160;Exports</text>
<g id="clust1" class="cluster">
<title>cluster_AppModule</title>
<polygon fill="none" stroke="#000000" stroke-dasharray="1,5" points="8,-70 8,-268 3074,-268 3074,-70 8,-70"/>
</g>
<g id="clust2" class="cluster">
<title>cluster_AppModule_declarations</title>
<polygon fill="none" stroke="#000000" points="1335,-78 1335,-130 3066,-130 3066,-78 1335,-78"/>
</g>
<g id="clust21" class="cluster">
<title>cluster_AppModule_bootstrap</title>
<polygon fill="none" stroke="#000000" points="1721,-208 1721,-260 1809,-260 1809,-208 1721,-208"/>
</g>
<g id="clust22" class="cluster">
<title>cluster_AppModule_providers</title>
<polygon fill="none" stroke="#000000" points="16,-78 16,-130 1327,-130 1327,-78 16,-78"/>
</g>
<!-- AboutModalPage -->
<g id="node1" class="node">
<title>AboutModalPage</title>
<polygon fill="#ffffb3" stroke="#000000" points="3058.2591,-122 2943.7409,-122 2943.7409,-86 3058.2591,-86 3058.2591,-122"/>
<text text-anchor="middle" x="3001" y="-99.8" font-family="Times,serif" font-size="14.00" fill="#000000">AboutModalPage</text>
</g>
<!-- AppModule -->
<g id="node17" class="node">
<title>AppModule</title>
<polygon fill="#8dd3c7" stroke="#000000" points="1806.6571,-187 1803.6571,-191 1782.6571,-191 1779.6571,-187 1723.3429,-187 1723.3429,-151 1806.6571,-151 1806.6571,-187"/>
<text text-anchor="middle" x="1765" y="-164.8" font-family="Times,serif" font-size="14.00" fill="#000000">AppModule</text>
</g>
<!-- AboutModalPage&#45;&gt;AppModule -->
<g id="edge1" class="edge">
<title>AboutModalPage&#45;&gt;AppModule</title>
<path fill="none" stroke="#000000" d="M3001,-122.1532C3001,-145.7566 3001,-184 3001,-184 3001,-184 1816.8322,-184 1816.8322,-184"/>
<polygon fill="#000000" stroke="#000000" points="1816.8322,-180.5001 1806.8322,-184 1816.8321,-187.5001 1816.8322,-180.5001"/>
</g>
<!-- AboutPage -->
<g id="node2" class="node">
<title>AboutPage</title>
<polygon fill="#ffffb3" stroke="#000000" points="2926.2093,-122 2847.7907,-122 2847.7907,-86 2926.2093,-86 2926.2093,-122"/>
<text text-anchor="middle" x="2887" y="-99.8" font-family="Times,serif" font-size="14.00" fill="#000000">AboutPage</text>
</g>
<!-- AboutPage&#45;&gt;AppModule -->
<g id="edge2" class="edge">
<title>AboutPage&#45;&gt;AppModule</title>
<path fill="none" stroke="#000000" d="M2887,-122.2479C2887,-145.0179 2887,-181 2887,-181 2887,-181 1816.936,-181 1816.936,-181"/>
<polygon fill="#000000" stroke="#000000" points="1816.936,-177.5001 1806.936,-181 1816.9359,-184.5001 1816.936,-177.5001"/>
</g>
<!-- AboutTextPage -->
<g id="node3" class="node">
<title>AboutTextPage</title>
<polygon fill="#ffffb3" stroke="#000000" points="2829.8669,-122 2726.1331,-122 2726.1331,-86 2829.8669,-86 2829.8669,-122"/>
<text text-anchor="middle" x="2778" y="-99.8" font-family="Times,serif" font-size="14.00" fill="#000000">AboutTextPage</text>
</g>
<!-- AboutTextPage&#45;&gt;AppModule -->
<g id="edge3" class="edge">
<title>AboutTextPage&#45;&gt;AppModule</title>
<path fill="none" stroke="#000000" d="M2778,-122.2921C2778,-144.2057 2778,-178 2778,-178 2778,-178 1816.918,-178 1816.918,-178"/>
<polygon fill="#000000" stroke="#000000" points="1816.918,-174.5001 1806.918,-178 1816.9179,-181.5001 1816.918,-174.5001"/>
</g>
<!-- ContactPage -->
<g id="node4" class="node">
<title>ContactPage</title>
<polygon fill="#ffffb3" stroke="#000000" points="2708.2591,-122 2621.7409,-122 2621.7409,-86 2708.2591,-86 2708.2591,-122"/>
<text text-anchor="middle" x="2665" y="-99.8" font-family="Times,serif" font-size="14.00" fill="#000000">ContactPage</text>
</g>
<!-- ContactPage&#45;&gt;AppModule -->
<g id="edge4" class="edge">
<title>ContactPage&#45;&gt;AppModule</title>
<path fill="none" stroke="#000000" d="M2665,-122.2843C2665,-143.3211 2665,-175 2665,-175 2665,-175 1816.9023,-175 1816.9023,-175"/>
<polygon fill="#000000" stroke="#000000" points="1816.9024,-171.5001 1806.9023,-175 1816.9023,-178.5001 1816.9024,-171.5001"/>
</g>
<!-- HelpModalPage -->
<g id="node5" class="node">
<title>HelpModalPage</title>
<polygon fill="#ffffb3" stroke="#000000" points="2603.4734,-122 2496.5266,-122 2496.5266,-86 2603.4734,-86 2603.4734,-122"/>
<text text-anchor="middle" x="2550" y="-99.8" font-family="Times,serif" font-size="14.00" fill="#000000">HelpModalPage</text>
</g>
<!-- HelpModalPage&#45;&gt;AppModule -->
<g id="edge5" class="edge">
<title>HelpModalPage&#45;&gt;AppModule</title>
<path fill="none" stroke="#000000" d="M2550,-122.2228C2550,-142.3652 2550,-172 2550,-172 2550,-172 1816.9275,-172 1816.9275,-172"/>
<polygon fill="#000000" stroke="#000000" points="1816.9275,-168.5001 1806.9275,-172 1816.9274,-175.5001 1816.9275,-168.5001"/>
</g>
<!-- HelpPage -->
<g id="node6" class="node">
<title>HelpPage</title>
<polygon fill="#ffffb3" stroke="#000000" points="2478.4249,-122 2407.5751,-122 2407.5751,-86 2478.4249,-86 2478.4249,-122"/>
<text text-anchor="middle" x="2443" y="-99.8" font-family="Times,serif" font-size="14.00" fill="#000000">HelpPage</text>
</g>
<!-- HelpPage&#45;&gt;AppModule -->
<g id="edge6" class="edge">
<title>HelpPage&#45;&gt;AppModule</title>
<path fill="none" stroke="#000000" d="M2443,-122.1061C2443,-141.3391 2443,-169 2443,-169 2443,-169 1816.9003,-169 1816.9003,-169"/>
<polygon fill="#000000" stroke="#000000" points="1816.9003,-165.5001 1806.9003,-169 1816.9002,-172.5001 1816.9003,-165.5001"/>
</g>
<!-- HelpTextPage -->
<g id="node7" class="node">
<title>HelpTextPage</title>
<polygon fill="#ffffb3" stroke="#000000" points="2390.0814,-122 2293.9186,-122 2293.9186,-86 2390.0814,-86 2390.0814,-122"/>
<text text-anchor="middle" x="2342" y="-99.8" font-family="Times,serif" font-size="14.00" fill="#000000">HelpTextPage</text>
</g>
<!-- HelpTextPage&#45;&gt;AppModule -->
<g id="edge7" class="edge">
<title>HelpTextPage&#45;&gt;AppModule</title>
<path fill="none" stroke="#000000" d="M2342,-122.2667C2342,-140.5552 2342,-166 2342,-166 2342,-166 1816.9612,-166 1816.9612,-166"/>
<polygon fill="#000000" stroke="#000000" points="1816.9612,-162.5001 1806.9612,-166 1816.9612,-169.5001 1816.9612,-162.5001"/>
</g>
<!-- HomePage -->
<g id="node8" class="node">
<title>HomePage</title>
<polygon fill="#ffffb3" stroke="#000000" points="2275.9248,-122 2198.0752,-122 2198.0752,-86 2275.9248,-86 2275.9248,-122"/>
<text text-anchor="middle" x="2237" y="-99.8" font-family="Times,serif" font-size="14.00" fill="#000000">HomePage</text>
</g>
<!-- HomePage&#45;&gt;AppModule -->
<g id="edge8" class="edge">
<title>HomePage&#45;&gt;AppModule</title>
<path fill="none" stroke="#000000" d="M2237,-122.0225C2237,-139.3734 2237,-163 2237,-163 2237,-163 1816.8869,-163 1816.8869,-163"/>
<polygon fill="#000000" stroke="#000000" points="1816.8869,-159.5001 1806.8869,-163 1816.8868,-166.5001 1816.8869,-159.5001"/>
</g>
<!-- MyApp -->
<g id="node9" class="node">
<title>MyApp</title>
<polygon fill="#ffffb3" stroke="#000000" points="2180.5529,-122 2121.4471,-122 2121.4471,-86 2180.5529,-86 2180.5529,-122"/>
<text text-anchor="middle" x="2151" y="-99.8" font-family="Times,serif" font-size="14.00" fill="#000000">MyApp</text>
</g>
<!-- MyApp&#45;&gt;AppModule -->
<g id="edge9" class="edge">
<title>MyApp&#45;&gt;AppModule</title>
<path fill="none" stroke="#000000" d="M2151,-122.027C2151,-138.3976 2151,-160 2151,-160 2151,-160 1816.6755,-160 1816.6755,-160"/>
<polygon fill="#000000" stroke="#000000" points="1816.6755,-156.5001 1806.6755,-160 1816.6755,-163.5001 1816.6755,-156.5001"/>
</g>
<!-- PointsPage -->
<g id="node10" class="node">
<title>PointsPage</title>
<polygon fill="#ffffb3" stroke="#000000" points="2103.2205,-122 2024.7795,-122 2024.7795,-86 2103.2205,-86 2103.2205,-122"/>
<text text-anchor="middle" x="2064" y="-99.8" font-family="Times,serif" font-size="14.00" fill="#000000">PointsPage</text>
</g>
<!-- PointsPage&#45;&gt;AppModule -->
<g id="edge10" class="edge">
<title>PointsPage&#45;&gt;AppModule</title>
<path fill="none" stroke="#000000" d="M2064,-122.2396C2064,-137.5706 2064,-157 2064,-157 2064,-157 1816.8895,-157 1816.8895,-157"/>
<polygon fill="#000000" stroke="#000000" points="1816.8895,-153.5001 1806.8895,-157 1816.8895,-160.5001 1816.8895,-153.5001"/>
</g>
<!-- PrivacyModalPage -->
<g id="node11" class="node">
<title>PrivacyModalPage</title>
<polygon fill="#ffffb3" stroke="#000000" points="2007.0255,-122 1884.9745,-122 1884.9745,-86 2007.0255,-86 2007.0255,-122"/>
<text text-anchor="middle" x="1946" y="-99.8" font-family="Times,serif" font-size="14.00" fill="#000000">PrivacyModalPage</text>
</g>
<!-- PrivacyModalPage&#45;&gt;AppModule -->
<g id="edge11" class="edge">
<title>PrivacyModalPage&#45;&gt;AppModule</title>
<path fill="none" stroke="#000000" d="M1946,-122.0511C1946,-136.373 1946,-154 1946,-154 1946,-154 1816.98,-154 1816.98,-154"/>
<polygon fill="#000000" stroke="#000000" points="1816.98,-150.5001 1806.98,-154 1816.9799,-157.5001 1816.98,-150.5001"/>
</g>
<!-- PrivacyPage -->
<g id="node12" class="node">
<title>PrivacyPage</title>
<polygon fill="#ffffb3" stroke="#000000" points="1866.9748,-122 1781.0252,-122 1781.0252,-86 1866.9748,-86 1866.9748,-122"/>
<text text-anchor="middle" x="1824" y="-99.8" font-family="Times,serif" font-size="14.00" fill="#000000">PrivacyPage</text>
</g>
<!-- PrivacyPage&#45;&gt;AppModule -->
<g id="edge12" class="edge">
<title>PrivacyPage&#45;&gt;AppModule</title>
<path fill="none" stroke="#000000" d="M1793.9204,-122.1061C1793.9204,-122.1061 1793.9204,-140.991 1793.9204,-140.991"/>
<polygon fill="#000000" stroke="#000000" points="1790.4205,-140.9909 1793.9204,-150.991 1797.4205,-140.991 1790.4205,-140.9909"/>
</g>
<!-- PrivacyTextPage -->
<g id="node13" class="node">
<title>PrivacyTextPage</title>
<polygon fill="#ffffb3" stroke="#000000" points="1762.6332,-122 1651.3668,-122 1651.3668,-86 1762.6332,-86 1762.6332,-122"/>
<text text-anchor="middle" x="1707" y="-99.8" font-family="Times,serif" font-size="14.00" fill="#000000">PrivacyTextPage</text>
</g>
<!-- PrivacyTextPage&#45;&gt;AppModule -->
<g id="edge13" class="edge">
<title>PrivacyTextPage&#45;&gt;AppModule</title>
<path fill="none" stroke="#000000" d="M1742.9941,-122.1061C1742.9941,-122.1061 1742.9941,-140.991 1742.9941,-140.991"/>
<polygon fill="#000000" stroke="#000000" points="1739.4941,-140.9909 1742.9941,-150.991 1746.4941,-140.991 1739.4941,-140.9909"/>
</g>
<!-- TosModalPage -->
<g id="node14" class="node">
<title>TosModalPage</title>
<polygon fill="#ffffb3" stroke="#000000" points="1633.2591,-122 1532.7409,-122 1532.7409,-86 1633.2591,-86 1633.2591,-122"/>
<text text-anchor="middle" x="1583" y="-99.8" font-family="Times,serif" font-size="14.00" fill="#000000">TosModalPage</text>
</g>
<!-- TosModalPage&#45;&gt;AppModule -->
<g id="edge14" class="edge">
<title>TosModalPage&#45;&gt;AppModule</title>
<path fill="none" stroke="#000000" d="M1583,-122.0511C1583,-136.373 1583,-154 1583,-154 1583,-154 1713.2455,-154 1713.2455,-154"/>
<polygon fill="#000000" stroke="#000000" points="1713.2456,-157.5001 1723.2455,-154 1713.2455,-150.5001 1713.2456,-157.5001"/>
</g>
<!-- TosPage -->
<g id="node15" class="node">
<title>TosPage</title>
<polygon fill="#ffffb3" stroke="#000000" points="1515.2093,-122 1450.7907,-122 1450.7907,-86 1515.2093,-86 1515.2093,-122"/>
<text text-anchor="middle" x="1483" y="-99.8" font-family="Times,serif" font-size="14.00" fill="#000000">TosPage</text>
</g>
<!-- TosPage&#45;&gt;AppModule -->
<g id="edge15" class="edge">
<title>TosPage&#45;&gt;AppModule</title>
<path fill="none" stroke="#000000" d="M1483,-122.2396C1483,-137.5706 1483,-157 1483,-157 1483,-157 1713.0863,-157 1713.0863,-157"/>
<polygon fill="#000000" stroke="#000000" points="1713.0863,-160.5001 1723.0863,-157 1713.0862,-153.5001 1713.0863,-160.5001"/>
</g>
<!-- TosTextPage -->
<g id="node16" class="node">
<title>TosTextPage</title>
<polygon fill="#ffffb3" stroke="#000000" points="1432.8669,-122 1343.1331,-122 1343.1331,-86 1432.8669,-86 1432.8669,-122"/>
<text text-anchor="middle" x="1388" y="-99.8" font-family="Times,serif" font-size="14.00" fill="#000000">TosTextPage</text>
</g>
<!-- TosTextPage&#45;&gt;AppModule -->
<g id="edge16" class="edge">
<title>TosTextPage&#45;&gt;AppModule</title>
<path fill="none" stroke="#000000" d="M1388,-122.027C1388,-138.3976 1388,-160 1388,-160 1388,-160 1713.214,-160 1713.214,-160"/>
<polygon fill="#000000" stroke="#000000" points="1713.214,-163.5001 1723.214,-160 1713.2139,-156.5001 1713.214,-163.5001"/>
</g>
<!-- IonicApp  -->
<g id="node18" class="node">
<title>IonicApp </title>
<polygon fill="#80b1d3" stroke="#000000" points="1801.3734,-252 1728.6266,-252 1728.6266,-216 1801.3734,-216 1801.3734,-252"/>
<text text-anchor="middle" x="1765" y="-229.8" font-family="Times,serif" font-size="14.00" fill="#000000">IonicApp </text>
</g>
<!-- AppModule&#45;&gt;IonicApp  -->
<g id="edge17" class="edge">
<title>AppModule&#45;&gt;IonicApp </title>
<path fill="none" stroke="#000000" stroke-dasharray="1,5" d="M1765,-187.1061C1765,-187.1061 1765,-205.991 1765,-205.991"/>
<polygon fill="#000000" stroke="#000000" points="1761.5001,-205.9909 1765,-215.991 1768.5001,-205.991 1761.5001,-205.9909"/>
</g>
<!-- APIInterceptor -->
<g id="node19" class="node">
<title>APIInterceptor</title>
<ellipse fill="#fdb462" stroke="#000000" cx="1250" cy="-104" rx="68.8965" ry="18"/>
<text text-anchor="middle" x="1250" y="-99.8" font-family="Times,serif" font-size="14.00" fill="#000000">APIInterceptor</text>
</g>
<!-- APIInterceptor&#45;&gt;AppModule -->
<g id="edge18" class="edge">
<title>APIInterceptor&#45;&gt;AppModule</title>
<path fill="none" stroke="#000000" d="M1250,-122.0225C1250,-139.3734 1250,-163 1250,-163 1250,-163 1713.2916,-163 1713.2916,-163"/>
<polygon fill="#000000" stroke="#000000" points="1713.2917,-166.5001 1723.2916,-163 1713.2916,-159.5001 1713.2917,-166.5001"/>
</g>
<!-- ActionsService -->
<g id="node20" class="node">
<title>ActionsService</title>
<ellipse fill="#fdb462" stroke="#000000" cx="1093" cy="-104" rx="70.0596" ry="18"/>
<text text-anchor="middle" x="1093" y="-99.8" font-family="Times,serif" font-size="14.00" fill="#000000">ActionsService</text>
</g>
<!-- ActionsService&#45;&gt;AppModule -->
<g id="edge19" class="edge">
<title>ActionsService&#45;&gt;AppModule</title>
<path fill="none" stroke="#000000" d="M1093,-122.2667C1093,-140.5552 1093,-166 1093,-166 1093,-166 1713.2173,-166 1713.2173,-166"/>
<polygon fill="#000000" stroke="#000000" points="1713.2173,-169.5001 1723.2173,-166 1713.2173,-162.5001 1713.2173,-169.5001"/>
</g>
<!-- AuthService -->
<g id="node21" class="node">
<title>AuthService</title>
<ellipse fill="#fdb462" stroke="#000000" cx="946" cy="-104" rx="59.1083" ry="18"/>
<text text-anchor="middle" x="946" y="-99.8" font-family="Times,serif" font-size="14.00" fill="#000000">AuthService</text>
</g>
<!-- AuthService&#45;&gt;AppModule -->
<g id="edge20" class="edge">
<title>AuthService&#45;&gt;AppModule</title>
<path fill="none" stroke="#000000" d="M946,-122.1061C946,-141.3391 946,-169 946,-169 946,-169 1713.2597,-169 1713.2597,-169"/>
<polygon fill="#000000" stroke="#000000" points="1713.2597,-172.5001 1723.2597,-169 1713.2597,-165.5001 1713.2597,-172.5001"/>
</g>
<!-- ConsumptionsService -->
<g id="node22" class="node">
<title>ConsumptionsService</title>
<ellipse fill="#fdb462" stroke="#000000" cx="773" cy="-104" rx="95.5876" ry="18"/>
<text text-anchor="middle" x="773" y="-99.8" font-family="Times,serif" font-size="14.00" fill="#000000">ConsumptionsService</text>
</g>
<!-- ConsumptionsService&#45;&gt;AppModule -->
<g id="edge21" class="edge">
<title>ConsumptionsService&#45;&gt;AppModule</title>
<path fill="none" stroke="#000000" d="M773,-122.2228C773,-142.3652 773,-172 773,-172 773,-172 1713.3238,-172 1713.3238,-172"/>
<polygon fill="#000000" stroke="#000000" points="1713.3239,-175.5001 1723.3238,-172 1713.3238,-168.5001 1713.3239,-175.5001"/>
</g>
<!-- JwtInterceptor -->
<g id="node23" class="node">
<title>JwtInterceptor</title>
<ellipse fill="#fdb462" stroke="#000000" cx="592" cy="-104" rx="66.6094" ry="18"/>
<text text-anchor="middle" x="592" y="-99.8" font-family="Times,serif" font-size="14.00" fill="#000000">JwtInterceptor</text>
</g>
<!-- JwtInterceptor&#45;&gt;AppModule -->
<g id="edge22" class="edge">
<title>JwtInterceptor&#45;&gt;AppModule</title>
<path fill="none" stroke="#000000" d="M592,-122.2843C592,-143.3211 592,-175 592,-175 592,-175 1713.2523,-175 1713.2523,-175"/>
<polygon fill="#000000" stroke="#000000" points="1713.2523,-178.5001 1723.2523,-175 1713.2523,-171.5001 1713.2523,-178.5001"/>
</g>
<!-- OutgoesService -->
<g id="node24" class="node">
<title>OutgoesService</title>
<ellipse fill="#fdb462" stroke="#000000" cx="435" cy="-104" rx="72.3497" ry="18"/>
<text text-anchor="middle" x="435" y="-99.8" font-family="Times,serif" font-size="14.00" fill="#000000">OutgoesService</text>
</g>
<!-- OutgoesService&#45;&gt;AppModule -->
<g id="edge23" class="edge">
<title>OutgoesService&#45;&gt;AppModule</title>
<path fill="none" stroke="#000000" d="M435,-122.2921C435,-144.2057 435,-178 435,-178 435,-178 1712.9991,-178 1712.9991,-178"/>
<polygon fill="#000000" stroke="#000000" points="1712.9991,-181.5001 1722.9991,-178 1712.9991,-174.5001 1712.9991,-181.5001"/>
</g>
<!-- PaymentsService -->
<g id="node25" class="node">
<title>PaymentsService</title>
<ellipse fill="#fdb462" stroke="#000000" cx="267" cy="-104" rx="77.5839" ry="18"/>
<text text-anchor="middle" x="267" y="-99.8" font-family="Times,serif" font-size="14.00" fill="#000000">PaymentsService</text>
</g>
<!-- PaymentsService&#45;&gt;AppModule -->
<g id="edge24" class="edge">
<title>PaymentsService&#45;&gt;AppModule</title>
<path fill="none" stroke="#000000" d="M267,-122.2479C267,-145.0179 267,-181 267,-181 267,-181 1712.977,-181 1712.977,-181"/>
<polygon fill="#000000" stroke="#000000" points="1712.977,-184.5001 1722.977,-181 1712.9769,-177.5001 1712.977,-184.5001"/>
</g>
<!-- VehiclesService -->
<g id="node26" class="node">
<title>VehiclesService</title>
<ellipse fill="#fdb462" stroke="#000000" cx="98" cy="-104" rx="73.5502" ry="18"/>
<text text-anchor="middle" x="98" y="-99.8" font-family="Times,serif" font-size="14.00" fill="#000000">VehiclesService</text>
</g>
<!-- VehiclesService&#45;&gt;AppModule -->
<g id="edge25" class="edge">
<title>VehiclesService&#45;&gt;AppModule</title>
<path fill="none" stroke="#000000" d="M98,-122.1532C98,-145.7566 98,-184 98,-184 98,-184 1712.9593,-184 1712.9593,-184"/>
<polygon fill="#000000" stroke="#000000" points="1712.9593,-187.5001 1722.9593,-184 1712.9593,-180.5001 1712.9593,-187.5001"/>
</g>
</g>
</svg>
